<mxfile host="app.diagrams.net" agent="Mozilla/5.0 (Windows NT 10.0; Win64; x64) AppleWebKit/537.36 (KHTML, like Gecko) Chrome/134.0.0.0 Safari/537.36" version="26.1.0">
  <diagram name="Page-1" id="2YBvvXClWsGukQMizWep">
    <mxGraphModel grid="1" page="1" gridSize="10" guides="1" tooltips="1" connect="1" arrows="1" fold="1" pageScale="1" pageWidth="850" pageHeight="1100" math="0" shadow="0">
      <root>
        <mxCell id="0" />
        <mxCell id="1" parent="0" />
        <mxCell id="FN4liS6-Fkbakg0rzR0O-1" value="Cliente" style="shape=umlLifeline;perimeter=lifelinePerimeter;whiteSpace=wrap;html=1;container=1;dropTarget=0;collapsible=0;recursiveResize=0;outlineConnect=0;portConstraint=eastwest;newEdgeStyle={&quot;curved&quot;:0,&quot;rounded&quot;:0};participant=umlActor;labelPosition=center;verticalLabelPosition=top;align=center;verticalAlign=bottom;" vertex="1" parent="1">
          <mxGeometry x="70" y="110" width="20" height="170" as="geometry" />
        </mxCell>
        <mxCell id="FN4liS6-Fkbakg0rzR0O-7" value="" style="html=1;points=[[0,0,0,0,5],[0,1,0,0,-5],[1,0,0,0,5],[1,1,0,0,-5]];perimeter=orthogonalPerimeter;outlineConnect=0;targetShapes=umlLifeline;portConstraint=eastwest;newEdgeStyle={&quot;curved&quot;:0,&quot;rounded&quot;:0};" vertex="1" parent="FN4liS6-Fkbakg0rzR0O-1">
          <mxGeometry x="5" y="90" width="10" height="30" as="geometry" />
        </mxCell>
        <mxCell id="FN4liS6-Fkbakg0rzR0O-8" value="" style="html=1;points=[[0,0,0,0,5],[0,1,0,0,-5],[1,0,0,0,5],[1,1,0,0,-5]];perimeter=orthogonalPerimeter;outlineConnect=0;targetShapes=umlLifeline;portConstraint=eastwest;newEdgeStyle={&quot;curved&quot;:0,&quot;rounded&quot;:0};" vertex="1" parent="FN4liS6-Fkbakg0rzR0O-1">
          <mxGeometry x="5" y="130" width="10" height="30" as="geometry" />
        </mxCell>
        <mxCell id="FN4liS6-Fkbakg0rzR0O-2" value="Sistema" style="shape=umlLifeline;perimeter=lifelinePerimeter;whiteSpace=wrap;html=1;container=1;dropTarget=0;collapsible=0;recursiveResize=0;outlineConnect=0;portConstraint=eastwest;newEdgeStyle={&quot;curved&quot;:0,&quot;rounded&quot;:0};" vertex="1" parent="1">
          <mxGeometry x="325" y="100" width="100" height="180" as="geometry" />
        </mxCell>
        <mxCell id="FN4liS6-Fkbakg0rzR0O-6" value="" style="html=1;points=[[0,0,0,0,5],[0,1,0,0,-5],[1,0,0,0,5],[1,1,0,0,-5]];perimeter=orthogonalPerimeter;outlineConnect=0;targetShapes=umlLifeline;portConstraint=eastwest;newEdgeStyle={&quot;curved&quot;:0,&quot;rounded&quot;:0};" vertex="1" parent="FN4liS6-Fkbakg0rzR0O-2">
          <mxGeometry x="45" y="70" width="10" height="30" as="geometry" />
        </mxCell>
        <mxCell id="FN4liS6-Fkbakg0rzR0O-3" value="Accede a la pagina web" style="html=1;verticalAlign=bottom;endArrow=block;curved=0;rounded=0;" edge="1" parent="1">
          <mxGeometry width="80" relative="1" as="geometry">
            <mxPoint x="79.5" y="170" as="sourcePoint" />
            <mxPoint x="374.5" y="170" as="targetPoint" />
          </mxGeometry>
        </mxCell>
        <mxCell id="FN4liS6-Fkbakg0rzR0O-4" value="Muestra interfaz actualizada" style="html=1;verticalAlign=bottom;endArrow=block;curved=0;rounded=0;" edge="1" parent="1">
          <mxGeometry width="80" relative="1" as="geometry">
            <mxPoint x="374.5" y="200" as="sourcePoint" />
            <mxPoint x="79.5" y="200" as="targetPoint" />
          </mxGeometry>
        </mxCell>
        <mxCell id="FN4liS6-Fkbakg0rzR0O-5" value="Navega y utiliza funcionalidades" style="html=1;verticalAlign=bottom;endArrow=block;curved=0;rounded=0;" edge="1" parent="1">
          <mxGeometry width="80" relative="1" as="geometry">
            <mxPoint x="374.5" y="240" as="sourcePoint" />
            <mxPoint x="79.5" y="240" as="targetPoint" />
          </mxGeometry>
        </mxCell>
        <mxCell id="FN4liS6-Fkbakg0rzR0O-9" value="Cliente" style="shape=umlActor;verticalLabelPosition=bottom;verticalAlign=top;html=1;" vertex="1" parent="1">
          <mxGeometry x="65" y="280" width="30" height="40" as="geometry" />
        </mxCell>
        <mxCell id="FN4liS6-Fkbakg0rzR0O-10" value="Sistema" style="html=1;whiteSpace=wrap;" vertex="1" parent="1">
          <mxGeometry x="320" y="280" width="110" height="40" as="geometry" />
        </mxCell>
      </root>
    </mxGraphModel>
  </diagram>
</mxfile>
